<svg width="15.151855" height="13.824219" viewBox="0 0 15.1519 13.8242" fill="none" xmlns="http://www.w3.org/2000/svg" xmlns:xlink="http://www.w3.org/1999/xlink">
	<path id="Vector" d="M12.08 0.84C11.04 0.26 9.86 -0.03 8.67 0L6.46 0C5.27 -0.03 4.09 0.26 3.05 0.84C2.07 1.4 1.28 2.24 0.78 3.26C0.23 4.4 -0.04 5.65 0 6.92C-0.03 8.18 0.23 9.43 0.78 10.56C1.28 11.58 2.07 12.41 3.05 12.97C4.09 13.55 5.27 13.84 6.46 13.82L13.46 13.82C14.59 13.82 15.14 13 15.14 10.77L15.14 6.92C15.17 5.65 14.9 4.4 14.35 3.26C13.85 2.24 13.06 1.4 12.08 0.84ZM12.36 11.64L6.46 11.64C5.26 11.64 4.34 11.24 3.69 10.44C3.05 9.64 2.73 8.47 2.74 6.92C2.74 5.39 3.06 4.23 3.71 3.42C4.36 2.61 5.27 2.21 6.46 2.2L8.67 2.2C9.86 2.2 10.77 2.61 11.42 3.42C12.07 4.23 12.4 5.4 12.4 6.92C12.4 8.46 12.36 11.64 12.36 11.64Z" fill="#2963A3" fill-opacity="1.000000" fill-rule="nonzero"/>
</svg>
