<svg width="11.560791" height="19.499512" viewBox="0 0 11.5608 19.4995" fill="none" xmlns="http://www.w3.org/2000/svg" xmlns:xlink="http://www.w3.org/1999/xlink">
	<path id="Vector" d="M11.06 17.2L5.77 12.48L10.57 8.04C10.71 7.92 10.83 7.78 10.91 7.61C10.99 7.45 11.03 7.27 11.04 7.08C11.03 6.75 10.89 6.43 10.65 6.19C10.42 5.95 10.1 5.81 9.77 5.8C9.43 5.83 9.11 5.97 8.88 6.21L2.72 12.02L2.72 1.33C2.74 1.15 2.71 0.96 2.64 0.79C2.58 0.62 2.48 0.47 2.35 0.34C2.08 0.1 1.73 -0.02 1.37 0C1.02 -0.02 0.66 0.11 0.39 0.34C0.25 0.46 0.15 0.62 0.08 0.79C0.01 0.96 -0.01 1.15 0 1.33L0 18.16C-0.01 18.34 0.01 18.53 0.08 18.7C0.15 18.87 0.25 19.03 0.39 19.15C0.66 19.39 1.02 19.51 1.37 19.49C1.73 19.51 2.08 19.39 2.35 19.15C2.48 19.03 2.58 18.87 2.64 18.7C2.71 18.53 2.74 18.34 2.72 18.16L2.72 13.11L9.44 19.11C9.69 19.35 10.02 19.49 10.36 19.49C10.52 19.49 10.68 19.46 10.82 19.39C10.96 19.32 11.09 19.23 11.2 19.11C11.43 18.87 11.56 18.54 11.56 18.2C11.56 18.01 11.51 17.82 11.42 17.64C11.34 17.47 11.21 17.32 11.06 17.2Z" fill="#2963A3" fill-opacity="1.000000" fill-rule="nonzero"/>
</svg>
