<svg width="2.730957" height="19.494629" viewBox="0 0 2.73096 19.4946" fill="none" xmlns="http://www.w3.org/2000/svg" xmlns:xlink="http://www.w3.org/1999/xlink">
	<path id="Vector" d="M1.37 0C1.01 -0.02 0.66 0.11 0.39 0.34C0.25 0.46 0.15 0.62 0.08 0.79C0.01 0.96 -0.01 1.15 0 1.33L0 18.18C-0.02 18.36 0.01 18.55 0.08 18.72C0.15 18.89 0.25 19.04 0.39 19.16C0.67 19.39 1.02 19.5 1.37 19.49C1.73 19.5 2.07 19.39 2.35 19.16C2.48 19.04 2.58 18.88 2.64 18.71C2.71 18.54 2.74 18.36 2.72 18.18L2.72 1.33C2.73 1.15 2.71 0.96 2.64 0.79C2.58 0.62 2.48 0.47 2.35 0.34C2.08 0.1 1.73 -0.02 1.37 0Z" fill="#2963A3" fill-opacity="1.000000" fill-rule="nonzero"/>
</svg>
