<svg width="15.164307" height="13.824219" viewBox="0 0 15.1643 13.8242" fill="none" xmlns="http://www.w3.org/2000/svg" xmlns:xlink="http://www.w3.org/1999/xlink">
	<path id="Vector" d="M1.69 13.82L8.68 13.82C9.87 13.84 11.05 13.55 12.1 12.97C13.07 12.41 13.86 11.57 14.36 10.56C14.91 9.43 15.18 8.18 15.16 6.92C15.19 5.65 14.92 4.4 14.36 3.26C13.86 2.24 13.07 1.4 12.1 0.84C11.05 0.26 9.87 -0.03 8.68 0L6.47 0C5.28 -0.03 4.1 0.26 3.06 0.84C2.08 1.4 1.29 2.24 0.79 3.26C0.24 4.4 -0.03 5.65 0 6.92L0 10.78C0 13 0.56 13.82 1.69 13.82ZM3.72 3.41C4.37 2.61 5.29 2.2 6.47 2.2L8.68 2.2C9.87 2.2 10.79 2.61 11.44 3.42C12.08 4.23 12.41 5.4 12.41 6.92C12.41 8.47 12.09 9.64 11.45 10.44C10.81 11.24 9.89 11.64 8.68 11.64L2.78 11.64C2.78 11.64 2.75 8.46 2.75 6.92C2.75 5.38 3.07 4.23 3.72 3.41Z" fill="#2963A3" fill-opacity="1.000000" fill-rule="nonzero"/>
</svg>
