<svg width="9.531250" height="17.607910" viewBox="0 0 9.53125 17.6079" fill="none" xmlns="http://www.w3.org/2000/svg" xmlns:xlink="http://www.w3.org/1999/xlink">
	<path id="Vector" d="M8.42 15.48L7.67 15.43C6.95 15.38 6.41 15.15 6.06 14.75C5.71 14.35 5.54 13.72 5.54 12.87L5.54 6.27L8.2 6.27C8.52 6.29 8.83 6.2 9.08 6.01C9.19 5.91 9.27 5.78 9.32 5.65C9.38 5.51 9.4 5.36 9.39 5.22C9.4 5.07 9.37 4.93 9.32 4.79C9.27 4.65 9.18 4.53 9.08 4.43C8.83 4.23 8.52 4.12 8.2 4.14L5.53 4.14L5.53 1.33C5.54 1.15 5.51 0.97 5.45 0.8C5.38 0.63 5.28 0.48 5.15 0.35C4.88 0.11 4.52 -0.02 4.15 0C3.97 -0.01 3.79 0.01 3.63 0.07C3.46 0.14 3.3 0.23 3.17 0.35C3.04 0.48 2.95 0.63 2.88 0.8C2.82 0.97 2.79 1.15 2.8 1.33L2.8 4.14L1.19 4.14C0.87 4.12 0.56 4.23 0.31 4.43C0.2 4.53 0.12 4.65 0.07 4.79C0.01 4.93 -0.01 5.07 0 5.22C0 5.92 0.39 6.27 1.19 6.27L2.8 6.27L2.8 12.68C2.8 14.22 3.16 15.39 3.88 16.18C4.61 16.97 5.69 17.42 7.15 17.53L7.88 17.58C8.3 17.64 8.73 17.56 9.11 17.35C9.24 17.26 9.35 17.14 9.42 16.99C9.5 16.85 9.53 16.68 9.52 16.52C9.53 16.39 9.51 16.26 9.47 16.13C9.42 16.01 9.35 15.89 9.26 15.8C9.03 15.6 8.73 15.49 8.42 15.48Z" fill="#2963A3" fill-opacity="1.000000" fill-rule="nonzero"/>
</svg>
