<svg width="11.616699" height="13.779297" viewBox="0 0 11.6167 13.7793" fill="none" xmlns="http://www.w3.org/2000/svg" xmlns:xlink="http://www.w3.org/1999/xlink">
	<path id="Vector" d="M8.96 12.45C8.95 12.62 8.97 12.79 9.04 12.95C9.1 13.11 9.19 13.25 9.31 13.37C9.43 13.48 9.57 13.57 9.73 13.63C9.89 13.69 10.06 13.72 10.23 13.71C10.59 13.72 10.95 13.6 11.22 13.35C11.35 13.23 11.45 13.09 11.52 12.93C11.58 12.77 11.61 12.6 11.61 12.43L11.61 1.33C11.62 1.15 11.59 0.97 11.53 0.8C11.47 0.64 11.37 0.48 11.25 0.35C10.96 0.12 10.61 0 10.25 0C9.89 0 9.54 0.13 9.26 0.37C9.13 0.49 9.04 0.64 8.97 0.81C8.91 0.98 8.88 1.15 8.88 1.33L8.88 7.74C8.88 8.88 8.56 9.8 7.92 10.49C7.6 10.84 7.2 11.11 6.76 11.29C6.32 11.47 5.85 11.55 5.37 11.53C4.48 11.53 3.81 11.27 3.38 10.77C2.94 10.26 2.73 9.47 2.73 8.4L2.73 1.33C2.74 1.15 2.71 0.97 2.65 0.8C2.59 0.64 2.49 0.48 2.37 0.35C2.23 0.23 2.08 0.13 1.91 0.07C1.73 0.01 1.55 -0.01 1.37 0C1.19 -0.01 1.01 0.01 0.83 0.07C0.66 0.13 0.5 0.23 0.36 0.35C0.24 0.48 0.14 0.63 0.08 0.8C0.01 0.97 -0.01 1.15 0 1.33L0 8.43C0 11.99 1.6 13.77 4.8 13.77C5.65 13.79 6.49 13.58 7.24 13.17C7.97 12.78 8.57 12.17 8.96 11.43L8.96 12.45Z" fill="#2963A3" fill-opacity="1.000000" fill-rule="nonzero"/>
</svg>
