<svg width="12.546265" height="17.492676" viewBox="0 0 12.5463 17.4927" fill="none" xmlns="http://www.w3.org/2000/svg" xmlns:xlink="http://www.w3.org/1999/xlink">
	<path id="Vector" d="M12.54 1.12C12.54 0.97 12.51 0.82 12.45 0.69C12.38 0.55 12.29 0.43 12.17 0.33C11.94 0.11 11.64 -0.01 11.32 0C11.1 -0.01 10.89 0.05 10.7 0.17C10.5 0.3 10.34 0.5 10.26 0.73L6.34 9.53L2.41 0.71C2.32 0.49 2.17 0.31 1.97 0.18C1.78 0.05 1.55 -0.01 1.32 0C0.98 -0.01 0.66 0.11 0.4 0.33C0.27 0.43 0.17 0.55 0.1 0.69C0.03 0.84 -0.01 1 0 1.16C-0.01 1.31 0.03 1.47 0.1 1.61L4.99 12.13L3.25 15.9C3.17 16.07 3.13 16.24 3.12 16.42C3.12 16.56 3.15 16.71 3.21 16.85C3.28 16.98 3.37 17.1 3.49 17.19C3.72 17.38 4.01 17.49 4.31 17.49C4.54 17.49 4.75 17.42 4.94 17.29C5.14 17.16 5.29 16.97 5.38 16.75L12.44 1.61C12.51 1.46 12.54 1.29 12.54 1.12Z" fill="#2963A3" fill-opacity="1.000000" fill-rule="nonzero"/>
</svg>
