<svg width="64.000000" height="48.000000" viewBox="0 0 64 48" fill="none" xmlns="http://www.w3.org/2000/svg" xmlns:xlink="http://www.w3.org/1999/xlink">
	<desc>
			Created with Pixso.
	</desc>
	<defs>
		<clipPath id="clip4492_2467">
			<rect id="Auto Layout Horizontal" rx="3.000000" width="62.000000" height="46.000000" transform="translate(1.000000 1.000000)" fill="white" fill-opacity="0"/>
		</clipPath>
	</defs>
	<rect id="Auto Layout Horizontal" rx="3.000000" width="62.000000" height="46.000000" transform="translate(1.000000 1.000000)" fill="#16C8BB" fill-opacity="1.000000"/>
	<g clip-path="url(#clip4492_2467)">
		<path id="Vector" d="M23 25L29 25L29 23L23 23L23 13.84C23 13.75 23.02 13.67 23.06 13.59C23.1 13.52 23.17 13.46 23.24 13.41C23.32 13.37 23.4 13.34 23.49 13.34C23.57 13.34 23.66 13.36 23.74 13.4L42.2 23.56C42.28 23.6 42.34 23.66 42.39 23.74C42.43 23.82 42.46 23.91 42.46 24C42.46 24.08 42.43 24.17 42.39 24.25C42.34 24.33 42.28 24.39 42.2 24.43L23.74 34.59C23.66 34.63 23.57 34.65 23.49 34.65C23.4 34.65 23.32 34.62 23.24 34.58C23.17 34.54 23.1 34.47 23.06 34.4C23.02 34.32 23 34.24 23 34.15L23 25Z" fill="#FFFFFF" fill-opacity="1.000000" fill-rule="nonzero"/>
	</g>
</svg>
