<svg width="18.000000" height="14.000000" viewBox="0 0 18 14" fill="none" xmlns="http://www.w3.org/2000/svg" xmlns:xlink="http://www.w3.org/1999/xlink">
	<path id="Vector" d="M1 0L17 0C17.55 0 18 0.44 18 1C18 1.55 17.55 2 17 2L1 2C0.44 2 0 1.55 0 1C0 0.44 0.44 0 1 0ZM1 6L17 6C17.55 6 18 6.44 18 7C18 7.55 17.55 8 17 8L1 8C0.44 8 0 7.55 0 7C0 6.44 0.44 6 1 6ZM1 12L17 12C17.55 12 18 12.44 18 13C18 13.55 17.55 14 17 14L1 14C0.44 14 0 13.55 0 13C0 12.44 0.44 12 1 12Z" fill="#03B2A5" fill-opacity="1.000000" fill-rule="nonzero"/>
</svg>
