<?xml version="1.0" ?><!DOCTYPE svg  PUBLIC '-//W3C//DTD SVG 1.0//EN'  'http://www.w3.org/TR/2001/REC-SVG-20010904/DTD/svg10.dtd'><svg enable-background="new 0 0 32 32" height="32px" id="Layer_1" version="1.0" viewBox="0 0 32 32" width="32px" xml:space="preserve" xmlns="http://www.w3.org/2000/svg" xmlns:xlink="http://www.w3.org/1999/xlink"><path d="M31.75,14.537v13.828c0,2.005-1.631,3.635-3.635,3.635H3.887c-2.006,0-3.637-1.63-3.637-3.635V3.634  C0.25,1.63,1.881,0,3.887,0h13.326c0.668,0,1.211,0.542,1.211,1.211s-0.543,1.212-1.211,1.212H3.887  c-0.67,0-1.213,0.544-1.213,1.211v24.731c0,0.668,0.543,1.211,1.213,1.211h24.229c0.668,0,1.211-0.543,1.211-1.211V14.537  c0-0.669,0.541-1.212,1.211-1.212S31.75,13.868,31.75,14.537z M30.537,0h-8.566c-0.67,0-1.211,0.542-1.211,1.211  s0.541,1.212,1.211,1.212h5.643L13.906,16.128c-0.473,0.474-0.473,1.241,0,1.714c0.236,0.236,0.545,0.354,0.855,0.354  s0.621-0.118,0.857-0.354L29.326,4.136v5.642c0,0.669,0.541,1.211,1.211,1.211s1.213-0.542,1.213-1.211V1.211  C31.75,0.542,31.207,0,30.537,0z"/></svg>