<svg width="221.000000" height="102.000000" viewBox="0 0 221 102" fill="none" xmlns="http://www.w3.org/2000/svg" xmlns:xlink="http://www.w3.org/1999/xlink">
	<desc>
			Created with Pixso.
	</desc>
	<defs>
		<clipPath id="clip4492_1780">
			<rect id="Frame" rx="-0.487409" width="220.025177" height="49.025185" transform="translate(0.487409 0.487409)" fill="white" fill-opacity="0"/>
		</clipPath>
		<clipPath id="clip4492_1802">
			<rect id="Frame" rx="-0.500000" width="19.000000" height="11.000000" transform="translate(6.500000 80.500000)" fill="white" fill-opacity="0"/>
		</clipPath>
		<clipPath id="clip4492_1800">
			<rect id="Frame" rx="-0.500000" width="31.000000" height="31.000000" transform="translate(0.500000 70.500000)" fill="white" fill-opacity="0"/>
		</clipPath>
		<clipPath id="clip4492_1806">
			<rect id="Frame" rx="-0.500000" width="15.000000" height="13.000000" transform="translate(56.500000 79.500000)" fill="white" fill-opacity="0"/>
		</clipPath>
		<clipPath id="clip4492_1804">
			<rect id="Frame" rx="-0.500000" width="31.000000" height="31.000000" transform="translate(48.500000 70.500000)" fill="white" fill-opacity="0"/>
		</clipPath>
		<clipPath id="clip4492_1810">
			<rect id="Frame" rx="-0.500000" width="17.000000" height="17.000000" transform="translate(103.500000 77.500000)" fill="white" fill-opacity="0"/>
		</clipPath>
		<clipPath id="clip4492_1808">
			<rect id="Frame" rx="-0.500000" width="31.000000" height="31.000000" transform="translate(96.500000 70.500000)" fill="white" fill-opacity="0"/>
		</clipPath>
		<clipPath id="clip4492_1813">
			<rect id="Frame" rx="-0.285714" width="31.428572" height="31.428572" transform="translate(144.285721 70.285713)" fill="white" fill-opacity="0"/>
		</clipPath>
	</defs>
	<rect id="Frame" rx="-0.487409" width="220.025177" height="49.025185" transform="translate(0.487409 0.487409)" fill="#FFFFFF" fill-opacity="0"/>
	<g clip-path="url(#clip4492_1780)">
		<path id="Vector" d="M83.23 23.75C86.26 19.26 87.12 15.38 85.73 13.99C85.3 13.56 84.64 13.34 83.77 13.34C81.88 13.34 79.07 14.4 75.98 16.5C77.26 17.49 78.55 18.62 79.82 19.89C81.09 21.16 82.23 22.45 83.22 23.74L83.23 23.75Z" fill="#FFFFFF" fill-opacity="1.000000" fill-rule="nonzero"/>
		<path id="Vector" d="M69.64 19.9C70.91 18.63 72.2 17.49 73.49 16.51C70.39 14.41 67.59 13.35 65.69 13.35C64.84 13.35 64.17 13.56 63.73 14C62.34 15.39 63.2 19.26 66.24 23.76C67.23 22.47 68.37 21.18 69.63 19.91L69.64 19.9Z" fill="#FFFFFF" fill-opacity="1.000000" fill-rule="nonzero"/>
		<path id="Vector" d="M82.33 24.99C81.34 23.66 80.16 22.29 78.8 20.93C77.44 19.57 76.07 18.39 74.74 17.4C73.4 18.39 72.03 19.57 70.67 20.93C69.31 22.29 68.13 23.66 67.14 24.99C68.13 26.33 69.31 27.7 70.67 29.06C72.03 30.42 73.4 31.6 74.74 32.59C76.07 31.6 77.44 30.42 78.8 29.06C80.16 27.7 81.34 26.33 82.33 24.99Z" fill="#FFFFFF" fill-opacity="1.000000" fill-rule="nonzero"/>
		<path id="Vector" d="M66.25 26.24C63.21 30.73 62.35 34.61 63.74 36C65.13 37.39 69 36.53 73.5 33.48C72.21 32.49 70.92 31.35 69.65 30.09C68.38 28.82 67.25 27.53 66.26 26.24L66.25 26.24Z" fill="#FFFFFF" fill-opacity="1.000000" fill-rule="nonzero"/>
		<path id="Vector" d="M52.02 0L12.24 0C5.33 0 -0.26 5.59 -0.26 12.5L-0.26 37.5C-0.26 44.4 5.33 50 12.24 50L87.24 50C94.14 50 99.74 44.4 99.74 37.5L99.74 0L52.02 0ZM49.74 48.53L12.24 48.53C6.15 48.53 1.2 43.58 1.2 37.5L1.2 12.5C1.2 6.41 6.15 1.46 12.24 1.46L49.74 1.46L49.74 48.53ZM86.77 37.03C86.05 37.75 85.01 38.09 83.78 38.09C81.36 38.09 78.12 36.76 74.74 34.39C71.36 36.76 68.12 38.09 65.69 38.09C64.45 38.09 63.43 37.75 62.7 37.03C60.56 34.89 61.75 30.1 65.33 25C61.75 19.89 60.56 15.1 62.7 12.96C64.85 10.82 69.63 12.01 74.74 15.59C79.84 12.01 84.63 10.82 86.77 12.96C88.91 15.1 87.72 19.89 84.14 25C87.72 30.1 88.91 34.89 86.77 37.03Z" fill="#FFFFFF" fill-opacity="1.000000" fill-rule="nonzero"/>
		<path id="Vector" d="M79.84 30.09C78.57 31.36 77.28 32.5 75.99 33.48C80.48 36.52 84.35 37.38 85.75 36C87.14 34.61 86.27 30.74 83.24 26.24C82.24 27.53 81.11 28.82 79.85 30.09L79.84 30.09Z" fill="#FFFFFF" fill-opacity="1.000000" fill-rule="nonzero"/>
		<path id="Vector" d="M10.29 15.21C8.95 16.88 8.35 19.17 8.76 21.02C9.84 25.84 14.31 26.61 17.59 27.04C20.18 27.37 22.66 27.85 22.59 30.15C22.52 32.55 19.82 33.14 18.05 33.14C13.43 33.14 13.27 29.73 13.27 29.73L8.31 29.73C8.38 31.01 8.76 33.07 10.35 34.83C12.07 36.77 14.67 37.75 18.06 37.75C20.66 37.75 23.02 36.91 24.71 35.4L24.71 37.46L29.34 37.46L29.34 31.56L30.97 29.77L35.65 37.46L41.05 37.46L34.23 26.2L41.05 18.74L35.04 18.74L29.34 25L29.34 12.5L24.71 12.5L24.71 15.52C24.55 15.33 24.39 15.14 24.22 14.94C22.53 13.16 20.11 12.25 17 12.25C13.42 12.25 11.37 13.86 10.29 15.21ZM17.08 16.59C19.16 16.59 21.24 17.05 22.04 19.95L24.7 19.95L24.7 24.38C21.38 21.64 14.17 23.36 13.39 19.96C12.99 18.17 14.77 16.59 17.08 16.59Z" fill="#FFFFFF" fill-opacity="1.000000" fill-rule="nonzero"/>
		<path id="Vector" d="M111.53 34.34C111.85 34.44 112.2 34.49 112.62 34.49C113.14 34.49 113.55 34.34 113.87 34.02C114.18 33.71 114.39 33.29 114.49 32.83L107.9 18.88L112.28 18.88L116.51 28.89L120.21 18.88L124.39 18.88L118.45 32.63C117.67 34.45 116.86 35.8 115.98 36.65C115.1 37.54 114.14 37.97 113.08 37.97C112.71 37.97 112.43 37.97 112.19 37.92C111.93 37.89 111.73 37.84 111.54 37.79L111.05 37.64C110.91 37.59 110.78 37.54 110.66 37.51L110.66 33.98C110.89 34.13 111.18 34.27 111.51 34.35L111.53 34.34Z" fill="#FFFFFF" fill-opacity="1.000000" fill-rule="nonzero"/>
		<path id="Vector" d="M131.54 32.27C131.27 32.35 130.99 32.4 130.69 32.47C130.37 32.52 130.03 32.57 129.7 32.6C129.37 32.65 129.03 32.65 128.72 32.65C127.91 32.65 127.23 32.57 126.61 32.45C126.01 32.3 125.5 32.08 125.08 31.78C124.66 31.46 124.35 31.05 124.15 30.53C123.94 30.03 123.83 29.41 123.83 28.69L123.83 23.72L127.41 23.72L127.41 27.99C127.41 28.38 127.46 28.72 127.56 28.95C127.64 29.21 127.79 29.41 127.99 29.56C128.2 29.72 128.43 29.83 128.75 29.88C129.06 29.93 129.42 29.96 129.83 29.96C130.45 29.96 130.92 29.91 131.28 29.81C131.65 29.68 131.93 29.54 132.14 29.42L132.14 23.72L135.71 23.72L135.71 37.52L132.14 37.52L132.14 32.07C131.99 32.12 131.77 32.21 131.52 32.28L131.54 32.27Z" fill="#FFFFFF" fill-opacity="1.000000" fill-rule="nonzero"/>
		<path id="Vector" d="M149.58 35.79C149.61 36.05 149.69 36.29 149.77 36.41C149.85 36.59 149.92 36.69 150.03 36.77C150.13 36.86 150.21 36.91 150.35 36.93L150.35 37.5L146.38 37.5L146.17 36.85C146.07 36.58 146.04 36.28 146.04 35.88L145.24 36.68C144.95 36.92 144.67 37.12 144.33 37.3C144 37.49 143.63 37.64 143.2 37.74C142.76 37.84 142.24 37.89 141.64 37.89C141.04 37.89 140.45 37.81 139.93 37.63C139.41 37.44 138.97 37.16 138.58 36.83C138.21 36.46 137.91 36.02 137.69 35.48C137.49 34.96 137.38 34.34 137.38 33.64C137.38 33.07 137.46 32.55 137.64 32.05C137.83 31.56 138.08 31.15 138.39 30.78C138.73 30.42 139.12 30.11 139.58 29.88C140.05 29.62 140.57 29.46 141.17 29.38L144.67 28.86C144.8 28.83 144.93 28.83 145.09 28.78C145.24 28.75 145.37 28.7 145.5 28.6C145.63 28.52 145.74 28.42 145.82 28.29C145.9 28.13 145.95 27.95 145.95 27.72C145.95 27.48 145.9 27.28 145.85 27.1C145.77 26.89 145.64 26.73 145.48 26.6C145.3 26.45 145.1 26.34 144.81 26.26C144.53 26.18 144.16 26.16 143.75 26.16C143.25 26.16 142.89 26.21 142.61 26.3C142.29 26.4 142.06 26.56 141.91 26.71C141.72 26.89 141.59 27.1 141.52 27.31L141.37 28.06L137.79 28.06C137.79 27.91 137.83 27.68 137.88 27.36C137.93 27.08 138.03 26.74 138.19 26.38C138.32 26.04 138.56 25.68 138.81 25.31C139.07 24.94 139.41 24.61 139.88 24.29C140.29 24.01 140.84 23.75 141.46 23.56C142.08 23.38 142.81 23.28 143.69 23.25C144.91 23.25 145.93 23.38 146.7 23.61C147.45 23.88 148.05 24.21 148.49 24.6C148.9 25.02 149.19 25.45 149.34 25.95C149.47 26.45 149.54 26.93 149.54 27.43L149.54 34.74C149.54 35.16 149.57 35.5 149.62 35.76L149.58 35.79ZM145.28 31.07C145.04 31.17 144.76 31.27 144.39 31.33L143.44 31.51C143.02 31.6 142.66 31.67 142.35 31.78C142.04 31.88 141.78 32.01 141.57 32.16C141.37 32.35 141.21 32.55 141.1 32.78C141 33.02 140.95 33.3 140.95 33.67C140.95 33.95 141 34.22 141.08 34.42C141.19 34.65 141.32 34.8 141.5 34.97C141.65 35.1 141.84 35.23 142.05 35.28C142.28 35.36 142.52 35.38 142.78 35.38C142.91 35.38 143.1 35.35 143.3 35.33C143.5 35.3 143.71 35.25 143.97 35.18C144.2 35.08 144.44 34.98 144.67 34.81C144.9 34.68 145.11 34.48 145.29 34.25C145.49 34.01 145.65 33.73 145.75 33.36C145.86 33.03 145.94 32.63 145.94 32.17L145.94 30.77C145.74 30.91 145.5 31.01 145.29 31.09L145.28 31.07Z" fill="#FFFFFF" fill-opacity="1.000000" fill-rule="nonzero"/>
		<path id="Vector" d="M159.59 27.62C159.49 27.34 159.33 27.11 159.16 26.92C158.95 26.72 158.72 26.59 158.46 26.49C158.17 26.41 157.84 26.36 157.44 26.36C156.84 26.36 156.38 26.49 156.02 26.77C155.65 27.06 155.37 27.39 155.19 27.81C154.98 28.24 154.87 28.71 154.8 29.21C154.75 29.71 154.7 30.16 154.7 30.61C154.7 31.06 154.73 31.54 154.78 32.03C154.83 32.55 154.93 32.99 155.15 33.4C155.33 33.82 155.58 34.18 155.98 34.44C156.35 34.72 156.83 34.85 157.46 34.85C157.88 34.85 158.24 34.77 158.55 34.59C158.83 34.44 159.1 34.23 159.3 33.99C159.5 33.73 159.67 33.47 159.77 33.19C159.85 32.93 159.9 32.67 159.9 32.44L163.64 32.44C163.64 32.67 163.61 32.96 163.53 33.32C163.43 33.71 163.3 34.07 163.12 34.49C162.94 34.87 162.68 35.29 162.39 35.71C162.05 36.12 161.69 36.49 161.22 36.79C160.75 37.13 160.23 37.39 159.61 37.6C159 37.8 158.26 37.91 157.46 37.91C156.43 37.91 155.49 37.76 154.69 37.44C153.89 37.11 153.21 36.64 152.67 36.02C152.12 35.4 151.7 34.65 151.42 33.72C151.14 32.81 150.98 31.77 150.98 30.61C150.98 29.45 151.14 28.38 151.45 27.47C151.77 26.59 152.2 25.82 152.77 25.19C153.34 24.57 154.02 24.1 154.82 23.79C155.6 23.45 156.51 23.29 157.47 23.29C157.89 23.29 158.33 23.34 158.79 23.39C159.23 23.44 159.67 23.57 160.11 23.73C160.55 23.91 160.97 24.11 161.38 24.38C161.77 24.64 162.13 24.97 162.47 25.36C162.78 25.75 163.04 26.21 163.25 26.73C163.45 27.25 163.59 27.87 163.64 28.57L159.9 28.57C159.82 28.2 159.75 27.87 159.61 27.61L159.59 27.62Z" fill="#FFFFFF" fill-opacity="1.000000" fill-rule="nonzero"/>
		<path id="Vector" d="M176.1 23.71L176.1 26.61L171.93 26.61L171.93 37.51L168.36 37.51L168.36 26.61L164.18 26.61L164.18 23.71L176.11 23.71L176.1 23.71Z" fill="#FFFFFF" fill-opacity="1.000000" fill-rule="nonzero"/>
		<path id="Vector" d="M186.06 28.69L186.06 23.72L189.63 23.72L189.63 37.52L186.06 37.52L186.06 31.61L180.8 31.61L180.8 37.52L177.22 37.52L177.22 23.72L180.8 23.72L180.8 28.69L186.06 28.69Z" fill="#FFFFFF" fill-opacity="1.000000" fill-rule="nonzero"/>
		<path id="Vector" d="M195.66 32.21L200.7 23.71L204.45 23.71L204.45 37.51L200.88 37.51L200.88 29.18L200.83 29.18L195.95 37.51L192.03 37.51L192.03 23.71L195.61 23.71L195.61 32.21L195.66 32.21Z" fill="#FFFFFF" fill-opacity="1.000000" fill-rule="nonzero"/>
		<path id="Vector" d="M215.65 23.71L220.42 23.71L214.71 29.43L220.65 37.5L215.98 37.5L211.94 31.66L210.49 33.14L210.49 37.5L206.91 37.5L206.91 23.7L210.49 23.7L210.49 28.93L215.65 23.7L215.65 23.71Z" fill="#FFFFFF" fill-opacity="1.000000" fill-rule="nonzero"/>
	</g>
	<g clip-path="url(#clip4492_1800)">
		<rect id="Rectangle" y="70.000000" rx="16.000000" width="32.000000" height="32.000000" fill="#EFF5FB" fill-opacity="1.000000"/>
		<g clip-path="url(#clip4492_1802)">
			<path id="Vector" d="M25.82 90.54C25.76 90.44 25.43 89.69 23.83 88.16C22.16 86.55 22.38 86.81 24.4 84.02C25.63 82.33 26.12 81.29 25.96 80.85C25.82 80.43 24.91 80.54 24.91 80.54L21.91 80.56C21.91 80.56 21.69 80.52 21.52 80.63C21.36 80.73 21.26 80.96 21.26 80.96C21.26 80.96 20.78 82.27 20.14 83.39C18.8 85.74 18.27 85.87 18.05 85.72C17.54 85.38 17.67 84.35 17.67 83.62C17.67 81.34 18 80.39 17.02 80.14C16.69 80.06 16.45 80.01 15.61 80C14.54 79.99 13.63 80 13.12 80.26C12.78 80.44 12.51 80.82 12.67 80.84C12.87 80.87 13.32 80.97 13.56 81.31C13.87 81.74 13.86 82.72 13.86 82.72C13.86 82.72 14.04 85.4 13.44 85.74C13.04 85.97 12.48 85.5 11.29 83.36C10.68 82.27 10.21 81.06 10.21 81.06C10.21 81.06 10.13 80.83 9.97 80.71C9.77 80.56 9.5 80.52 9.5 80.52L6.65 80.54C6.65 80.54 6.22 80.55 6.06 80.74C5.92 80.91 6.05 81.27 6.05 81.27C6.05 81.27 8.29 86.69 10.82 89.42C13.14 91.93 15.78 91.76 15.78 91.76L16.98 91.76C16.98 91.76 17.34 91.72 17.52 91.52C17.69 91.33 17.68 90.97 17.68 90.97C17.68 90.97 17.66 89.31 18.41 89.07C19.14 88.83 20.08 90.67 21.08 91.38C21.84 91.92 22.41 91.8 22.41 91.8L25.08 91.76C25.08 91.76 26.48 91.67 25.82 90.54Z" fill="#333333" fill-opacity="1.000000" fill-rule="nonzero"/>
		</g>
	</g>
	<g clip-path="url(#clip4492_1804)">
		<rect id="Rectangle" x="48.000000" y="70.000000" rx="16.000000" width="32.000000" height="32.000000" fill="#EFF5FB" fill-opacity="1.000000"/>
		<g clip-path="url(#clip4492_1806)">
			<path id="Vector" d="M56.28 85.76L59.96 87.16L61.39 91.81C61.48 92.11 61.84 92.22 62.08 92.02L64.14 90.32C64.35 90.14 64.66 90.14 64.88 90.3L68.59 93.03C68.84 93.22 69.21 93.07 69.27 92.76L71.99 79.53C72.06 79.18 71.72 78.9 71.4 79.03L56.27 84.94C55.9 85.09 55.9 85.62 56.28 85.76ZM61.16 86.42L68.37 81.92C68.5 81.84 68.63 82.02 68.52 82.12L62.57 87.72C62.36 87.92 62.23 88.18 62.19 88.47L61.99 89.99C61.96 90.19 61.68 90.21 61.62 90.02L60.84 87.24C60.76 86.93 60.89 86.59 61.16 86.42Z" fill="#333333" fill-opacity="1.000000" fill-rule="nonzero"/>
		</g>
	</g>
	<g clip-path="url(#clip4492_1808)">
		<rect id="Rectangle" x="96.000000" y="70.000000" rx="16.000000" width="32.000000" height="32.000000" fill="#EFF5FB" fill-opacity="1.000000"/>
		<g clip-path="url(#clip4492_1810)">
			<path id="Vector" d="M120.47 80.71C119.83 80.99 119.15 81.17 118.46 81.26C119.19 80.82 119.74 80.14 120 79.33C119.31 79.73 118.56 80.02 117.78 80.17C117.26 79.61 116.56 79.24 115.81 79.12C115.05 78.99 114.27 79.12 113.59 79.48C112.92 79.84 112.38 80.42 112.06 81.12C111.75 81.82 111.67 82.6 111.85 83.35C110.46 83.28 109.1 82.92 107.87 82.3C106.63 81.67 105.54 80.79 104.66 79.71C104.35 80.24 104.19 80.85 104.19 81.46C104.19 82.67 104.81 83.74 105.74 84.36C105.19 84.35 104.65 84.2 104.16 83.93L104.16 83.97C104.16 84.78 104.44 85.56 104.95 86.18C105.46 86.8 106.17 87.23 106.96 87.39C106.44 87.53 105.91 87.55 105.38 87.45C105.61 88.14 106.04 88.75 106.62 89.18C107.21 89.62 107.91 89.86 108.64 89.87C107.92 90.44 107.09 90.86 106.2 91.1C105.32 91.35 104.39 91.42 103.48 91.31C105.07 92.34 106.93 92.88 108.82 92.88C115.23 92.88 118.74 87.57 118.74 82.96C118.74 82.81 118.73 82.66 118.73 82.51C119.41 82.02 120 81.41 120.47 80.71L120.47 80.71Z" fill="#333333" fill-opacity="1.000000" fill-rule="nonzero"/>
		</g>
	</g>
	<rect id="Frame" rx="-0.285714" width="31.428572" height="31.428572" transform="translate(144.285721 70.285713)" fill="#FFFFFF" fill-opacity="0"/>
	<g clip-path="url(#clip4492_1813)">
		<path id="Vector" d="M144 86C144 77.16 151.16 70 160 70C168.83 70 176 77.16 176 86C176 94.83 168.83 102 160 102C151.16 102 144 94.83 144 86Z" fill="#333333" fill-opacity="1.000000" fill-rule="nonzero"/>
		<path id="Vector" d="M159.67 70C159.6 76.58 159.17 80.26 156.71 82.71C154.26 85.17 150.58 85.6 144 85.67L144 86.63C150.58 86.7 154.26 87.13 156.71 89.58C159.13 92 159.58 95.6 159.67 102L160.63 102C160.72 95.6 161.17 92 163.58 89.58C166 87.17 169.61 86.72 176 86.63L176 85.67C169.61 85.58 166 85.13 163.58 82.71C161.13 80.26 160.7 76.58 160.63 70L159.67 70Z" fill="#FFFFFF" fill-opacity="1.000000" fill-rule="evenodd"/>
	</g>
</svg>
