<svg width="178.000000" height="34.763962" viewBox="0 0 178 34.764" fill="none" xmlns="http://www.w3.org/2000/svg" xmlns:xlink="http://www.w3.org/1999/xlink">
	<desc>
			Created with Pixso.
	</desc>
	<defs/>
	<line id="Line" x1="112.000000" y1="16.881973" x2="178.000000" y2="16.881973" stroke="#0063A8" stroke-opacity="1.000000" stroke-width="1.000000"/>
	<line id="Line" x1="0.000000" y1="16.881973" x2="66.000000" y2="16.881973" stroke="#0063A8" stroke-opacity="1.000000" stroke-width="1.000000"/>
	<circle id="Ellipse" cx="89.000000" cy="17.381973" r="16.000000" stroke="#0063A8" stroke-opacity="1.000000" stroke-width="2.763955" stroke-dasharray="0.979166 8.39285"/>
	<mask id="mask_4492_272" fill="white">
		<path id="Union" d="M88.0139 6.19426L81.1081 19.3491C80.7586 20.0149 81.2415 20.8139 81.9936 20.8139L85.6764 20.8139L85.4965 27.327C85.438 29.4452 88.2816 30.1881 89.2665 28.3119L96.1723 15.1571C96.5219 14.4912 96.0389 13.6923 95.2869 13.6923L91.604 13.6923L91.784 7.17912C91.8425 5.06096 88.9988 4.3181 88.0139 6.19426Z" clip-rule="evenodd" fill="" fill-opacity="1.000000" fill-rule="evenodd"/>
	</mask>
	<path id="Union" d="M88.0139 6.19426L81.1081 19.3491C80.7586 20.0149 81.2415 20.8139 81.9936 20.8139L85.6764 20.8139L85.4965 27.327C85.438 29.4452 88.2816 30.1881 89.2665 28.3119L96.1723 15.1571C96.5219 14.4912 96.0389 13.6923 95.2869 13.6923L91.604 13.6923L91.784 7.17912C91.8425 5.06096 88.9988 4.3181 88.0139 6.19426Z" clip-rule="evenodd" fill="#FFDF4E" fill-opacity="1.000000" fill-rule="evenodd" mask="url(#mask_4492_272)"/>
	<path id="Union" d="M91.6423 12.3044L91.784 7.17912C91.8425 5.06096 88.9988 4.3181 88.0139 6.19426L81.1081 19.3491C80.7586 20.0149 81.2415 20.8139 81.9936 20.8139L85.6764 20.8139L85.6381 22.2017L85.4965 27.327C85.438 29.4452 88.2816 30.1881 89.2665 28.3119L96.1723 15.1571C96.5219 14.4912 96.0389 13.6923 95.2869 13.6923L91.604 13.6923L91.6423 12.3044ZM82.6352 19.426L89.2427 6.83934Q89.3487 6.63759 89.5132 6.55991Q89.5267 6.55353 89.5406 6.54799Q89.5746 6.53444 89.6097 6.52536Q89.7635 6.48565 89.9395 6.5316Q90.1153 6.57754 90.23 6.68737Q90.2563 6.7125 90.2794 6.74098Q90.2888 6.7526 90.2974 6.76476Q90.4029 6.91299 90.3966 7.14079L90.1773 15.0802L94.6452 15.0802L88.0377 27.6668Q87.9318 27.8686 87.7673 27.9463Q87.7538 27.9526 87.7399 27.9582Q87.7057 27.9718 87.6705 27.9809Q87.5168 28.0205 87.341 27.9746Q87.1651 27.9286 87.0504 27.8188Q87.0242 27.7937 87.0011 27.7652Q86.9917 27.7535 86.983 27.7413Q86.8775 27.5931 86.8838 27.3654L87.1031 19.426L82.6352 19.426Z" clip-rule="evenodd" fill="#0063A8" fill-opacity="1.000000" fill-rule="evenodd"/>
</svg>
