<svg width="55.775391" height="36.000000" viewBox="0 0 55.7754 36" fill="none" xmlns="http://www.w3.org/2000/svg" xmlns:xlink="http://www.w3.org/1999/xlink">
	<desc>
			Created with Pixso.
	</desc>
	<defs/>
	<g opacity="0.060000">
		<path id="Vector" d="M20.43 15.35C21.87 16.29 22.96 17.5 23.71 18.97C24.46 20.38 24.84 21.97 24.84 23.73C24.84 27.38 23.56 30.35 20.99 32.64C18.43 34.88 15.27 36 11.53 36C8.09 36 5.31 35.02 3.18 33.08C1.06 31.14 0 28.61 0 25.5C0 23.91 0.31 22.38 0.93 20.91C1.56 19.44 2.71 17.55 4.4 15.26L15.46 0L28.59 0L20.43 15.35ZM47.62 15.35C49.05 16.29 50.15 17.5 50.9 18.97C51.65 20.38 52.02 21.97 52.02 23.73C52.02 27.38 50.74 30.35 48.18 32.64C45.62 34.88 42.46 36 38.71 36C35.27 36 32.49 35.02 30.37 33.08C28.24 31.14 27.18 28.61 27.18 25.5C27.18 23.91 27.49 22.38 28.12 20.91C28.74 19.44 29.9 17.55 31.59 15.26L42.65 0L55.77 0L47.62 15.35Z" fill="#333333" fill-opacity="1.000000" fill-rule="nonzero"/>
	</g>
</svg>
